<svg width="128" height="128" viewBox="0 0 128 128" fill="none" xmlns="http://www.w3.org/2000/svg">
<g clip-path="url(#clip0_835_1823)">
<path d="M128 0H0V128H128V0Z" fill="white"/>
<path d="M83.3689 35.2489L69.9911 55.1111C69.8006 55.3972 69.7201 55.7425 69.7645 56.0833C69.8089 56.4241 69.9752 56.7373 70.2327 56.965C70.4902 57.1927 70.8214 57.3194 71.1651 57.3217C71.5088 57.3241 71.8417 57.2019 72.1022 56.9778L85.2711 45.5556C85.3483 45.4865 85.4439 45.4414 85.5463 45.4258C85.6486 45.4102 85.7533 45.4247 85.8476 45.4676C85.9418 45.5105 86.0216 45.5799 86.0771 45.6673C86.1325 45.7548 86.1614 45.8565 86.16 45.96V81.72C86.16 81.8295 86.1262 81.9363 86.0634 82.0259C86.0005 82.1156 85.9116 82.1837 85.8087 82.2211C85.7058 82.2585 85.5939 82.2633 85.4882 82.2348C85.3825 82.2064 85.2881 82.1462 85.2178 82.0622L45.4133 34.4133C44.7731 33.6573 43.9759 33.0498 43.0771 32.633C42.1783 32.2163 41.1996 32.0003 40.2089 32H38.8178C37.0096 32 35.2755 32.7183 33.9969 33.9969C32.7183 35.2755 32 37.0096 32 38.8178V89.1822C32 90.9904 32.7183 92.7245 33.9969 94.0031C35.2755 95.2817 37.0096 96 38.8178 96C39.9836 96.0003 41.1301 95.7018 42.1478 95.1331C43.1655 94.5643 44.0205 93.7442 44.6311 92.7511L58.0089 72.8889C58.1994 72.6028 58.2799 72.2575 58.2355 71.9167C58.1911 71.5759 58.0248 71.2627 57.7673 71.035C57.5098 70.8073 57.1786 70.6806 56.8349 70.6783C56.4912 70.6759 56.1583 70.7981 55.8978 71.0222L42.7289 82.4444C42.6517 82.5135 42.5561 82.5586 42.4537 82.5742C42.3514 82.5898 42.2467 82.5753 42.1524 82.5324C42.0582 82.4895 41.9784 82.4201 41.9229 82.3327C41.8675 82.2452 41.8386 82.1435 41.84 82.04V46.2711C41.84 46.1616 41.8738 46.0548 41.9366 45.9652C41.9995 45.8755 42.0884 45.8074 42.1913 45.77C42.2942 45.7326 42.4061 45.7278 42.5118 45.7563C42.6175 45.7847 42.7119 45.845 42.7822 45.9289L82.5822 93.5867C83.2225 94.3427 84.0197 94.9502 84.9185 95.367C85.8172 95.7837 86.796 95.9997 87.7867 96H89.1778C90.0735 96.0006 90.9605 95.8247 91.7882 95.4823C92.6159 95.1399 93.368 94.6378 94.0015 94.0047C94.6351 93.3715 95.1377 92.6198 95.4806 91.7923C95.8235 90.9648 96 90.0779 96 89.1822V38.8178C96 37.0096 95.2817 35.2755 94.0031 33.9969C92.7245 32.7183 90.9904 32 89.1822 32C88.0164 31.9997 86.8699 32.2982 85.8522 32.8669C84.8345 33.4357 83.9795 34.2558 83.3689 35.2489Z" fill="black"/>
</g>
<defs>
<clipPath id="clip0_835_1823">
<rect width="128" height="128" fill="white"/>
</clipPath>
</defs>
</svg>
